<svg xmlns="http://www.w3.org/2000/svg" viewBox="0 0 512 512">
  <defs>
    <linearGradient id="bg" x1="0%" y1="0%" x2="100%" y2="100%">
      <stop offset="0%" style="stop-color:#667eea"/>
      <stop offset="100%" style="stop-color:#764ba2"/>
    </linearGradient>
  </defs>
  <rect width="512" height="512" rx="80" fill="url(#bg)"/>
  <g fill="white">
    <!-- Plate -->
    <ellipse cx="256" cy="300" rx="140" ry="70" fill="none" stroke="white" stroke-width="12"/>
    <ellipse cx="256" cy="300" rx="100" ry="50" fill="none" stroke="white" stroke-width="6"/>
    <!-- Fork -->
    <path d="M120 150 L120 280 M105 150 L105 200 M120 150 L120 200 M135 150 L135 200" stroke="white" stroke-width="8" fill="none" stroke-linecap="round"/>
    <!-- Knife -->
    <path d="M392 150 L392 280 M392 150 C420 160 420 200 392 210" stroke="white" stroke-width="8" fill="none" stroke-linecap="round"/>
    <!-- Steam lines -->
    <path d="M220 180 Q230 160 220 140" stroke="white" stroke-width="6" fill="none" stroke-linecap="round"/>
    <path d="M256 170 Q266 150 256 130" stroke="white" stroke-width="6" fill="none" stroke-linecap="round"/>
    <path d="M292 180 Q302 160 292 140" stroke="white" stroke-width="6" fill="none" stroke-linecap="round"/>
  </g>
  <!-- Text -->
  <text x="256" y="420" text-anchor="middle" fill="white" font-family="Arial, sans-serif" font-size="48" font-weight="bold">MEAL</text>
</svg>
